<?xml version="1.0" encoding="UTF-8"?> <svg xmlns="http://www.w3.org/2000/svg" xmlns:xlink="http://www.w3.org/1999/xlink" version="1.1" id="Layer_1" x="0px" y="0px" viewBox="0 0 150 30" style="enable-background:new 0 0 150 30;" xml:space="preserve"> <style type="text/css"> .st0{fill:#0C9AFC;} .st1{fill:#0C293D;} </style> <g> <polygon class="st0" points="2,1.6 2,12.7 13.1,12.7 13.1,23.9 24,23.9 24,1.6 "></polygon> <g> <path class="st1" d="M27.5,8.4c-0.9,0-0.9-1.4,0-1.4H29c0.3,0,0.6,0.2,0.6,0.5v14.9h0.6c0.9,0,0.9,1.4,0,1.4h-2.7 c-0.9,0-0.9-1.4,0-1.4h0.6V8.4H27.5z"></path> <path class="st1" d="M37.3,24c-3.4,0-5.9-2.6-5.9-5.9c0-3.2,2.5-5.9,5.7-5.9c3.1,0,5.1,2.6,5.2,5.8c0,0.4-0.2,0.8-0.7,0.8h-8.8 c0.4,2.2,2.3,3.8,4.5,3.8c0.8,0,2-0.2,2.7-0.6c0.5-0.3,0.8,0,1,0.2c0.2,0.3,0.1,0.7-0.3,1C39.7,23.7,38.3,24,37.3,24z M32.8,17.4 h8c-0.4-2.2-1.6-3.9-3.8-3.9C34.9,13.5,33.1,15.3,32.8,17.4z"></path> <path class="st1" d="M53.1,23.9c-0.3,0-0.5-0.2-0.5-0.5v-1.4c-0.9,1.3-2.5,2.1-4.2,2.1c-3.3,0-5.8-2.7-5.8-5.9 c0-3.2,2.5-5.8,5.6-5.8c3.1,0,4.3,2.3,4.3,2.3v-1.7c0-0.3,0.2-0.6,0.5-0.6h1.2c0.9,0,0.9,1.4,0,1.4h-0.3v8.8h0.3 c0.9,0,0.9,1.4,0,1.4H53.1z M48.3,13.6c-2.4,0-4.3,2-4.3,4.4c0,2.4,1.6,4.5,4.3,4.5c1.4,0,4.3-1.1,4.3-4.4 C52.6,15.8,50.8,13.6,48.3,13.6z"></path> <path class="st1" d="M66.1,23.9c-0.3,0-0.5-0.2-0.5-0.5v-1.4c-0.9,1.3-2.5,2.1-4.2,2.1c-3.3,0-5.8-2.7-5.8-5.9 c0-3.2,2.5-5.8,5.6-5.8c3.1,0,4.3,2.3,4.3,2.3V8.4h-0.3c-0.9,0-0.9-1.4,0-1.4h1.2c0.3,0,0.5,0.2,0.5,0.6v14.9h0.3 c0.9,0,0.9,1.4,0,1.4H66.1z M61.3,13.6c-2.4,0-4.3,2-4.3,4.4c0,2.4,1.6,4.5,4.3,4.5c1.4,0,4.2-1.1,4.2-4.4 C65.5,15.8,63.8,13.6,61.3,13.6z"></path> <path class="st0" d="M76.4,12.2c0.3,0,0.7,0.2,0.7,0.6v2.6c0,0.4-0.3,0.6-0.7,0.6c-0.4,0-0.7-0.3-0.7-0.6c0-1.3-1.2-2-2.5-2 c-1.1,0-2.5,0.6-2.5,1.9c0,1.1,1.1,1.7,3.1,2.1c1.8,0.4,3.6,0.9,3.6,3.1c0,2.1-2.1,3.4-4,3.4c-1.1,0-2.3-0.4-2.9-1.2v0.6 c0,0.4-0.4,0.6-0.7,0.6c-0.3,0-0.7-0.2-0.7-0.6v-2.8c0-0.4,0.4-0.7,0.7-0.7c0.4,0,0.8,0.3,0.8,0.7c0,1.5,1.5,2.1,2.8,2.1 c1.1,0,2.6-0.8,2.6-2.1c0-1.3-1.5-1.6-2.6-1.8c-2.8-0.6-4.1-1.6-4.1-3.4c0-2,1.9-3.1,3.7-3.1c1.1,0,2.1,0.5,2.7,1.1v-0.5 C75.7,12.3,76,12.2,76.4,12.2z"></path> <path class="st0" d="M90.1,12.3c0.9,0,0.9,1.4,0,1.4h-0.3V27h0.3c0.9,0,0.9,1.4,0,1.4H89c-0.3,0-0.5-0.2-0.5-0.6v-6.3 c0,0-1.2,2.3-4.3,2.3c-3.2,0-5.6-2.7-5.6-5.8c0-3.2,2.5-5.9,5.8-5.9c1.7,0,3.2,0.9,4.2,2.2v-1.5c0-0.3,0.2-0.5,0.5-0.5H90.1z M84.2,13.5c-2.7,0-4.4,2.1-4.3,4.5c0,2.4,1.9,4.4,4.3,4.4c2.5,0,4.2-2.2,4.2-4.5C88.4,14.6,85.7,13.5,84.2,13.5z"></path> <path class="st0" d="M101,13.6c-0.9,0-0.9-1.4,0-1.4h1.3c0.3,0,0.6,0.2,0.6,0.5v9.7h0.5c0.9,0,0.9,1.4,0,1.4H102 c-0.3,0-0.6-0.2-0.6-0.6v-1.2c-0.9,1.3-2.4,1.8-3.9,1.8c-3.3,0-4.9-2.2-4.9-5.1v-5.1h-0.5c-0.9,0-0.9-1.4,0-1.4h1.3 c0.3,0,0.6,0.2,0.6,0.5v6c0,2.1,1.1,3.7,3.6,3.7c2.2,0,3.9-1.2,3.9-3.9v-4.9H101z"></path> <path class="st0" d="M115.3,23.9c-0.3,0-0.5-0.2-0.5-0.5v-1.4c-0.9,1.3-2.5,2.1-4.2,2.1c-3.3,0-5.8-2.7-5.8-5.9 c0-3.2,2.5-5.8,5.6-5.8c3.1,0,4.3,2.3,4.3,2.3v-1.7c0-0.3,0.2-0.6,0.5-0.6h1.2c0.9,0,0.9,1.4,0,1.4h-0.3v8.8h0.3 c0.9,0,0.9,1.4,0,1.4H115.3z M110.5,13.6c-2.4,0-4.3,2-4.3,4.4c0,2.4,1.6,4.5,4.3,4.5c1.4,0,4.3-1.1,4.3-4.4 C114.9,15.8,113.1,13.6,110.5,13.6z"></path> <path class="st0" d="M120.5,23.3c0,0.3-0.2,0.5-0.5,0.5h-1.1c-0.9,0-0.9-1.4,0-1.4h0.3v-8.8h-0.3c-0.9,0-0.9-1.4,0-1.4h1.1 c0.3,0,0.5,0.2,0.5,0.6v1.4c1-1.5,2.4-2,4.1-2c0.4,0,0.7,0.2,0.7,0.7c0,0.7-0.7,0.7-0.7,0.7h-0.1c-1.8,0-4,1-4,3.4V23.3z"></path> <path class="st0" d="M130.9,24c-3.4,0-5.9-2.6-5.9-5.9c0-3.2,2.5-5.9,5.7-5.9c3.1,0,5.1,2.6,5.2,5.8c0,0.4-0.2,0.8-0.7,0.8h-8.8 c0.4,2.2,2.3,3.8,4.5,3.8c0.8,0,2-0.2,2.7-0.6c0.5-0.3,0.8,0,1,0.2c0.2,0.3,0.1,0.7-0.3,1C133.4,23.7,131.9,24,130.9,24z M126.4,17.4h8c-0.4-2.2-1.6-3.9-3.8-3.9C128.5,13.5,126.7,15.3,126.4,17.4z"></path> <path class="st0" d="M146.7,23.9c-0.3,0-0.5-0.2-0.5-0.5v-1.4c-0.9,1.3-2.5,2.1-4.2,2.1c-3.3,0-5.8-2.7-5.8-5.9 c0-3.2,2.5-5.8,5.6-5.8c3.1,0,4.3,2.3,4.3,2.3V8.4h-0.3c-0.9,0-0.9-1.4,0-1.4h1.2c0.3,0,0.5,0.2,0.5,0.6v14.9h0.3 c0.9,0,0.9,1.4,0,1.4H146.7z M141.9,13.6c-2.4,0-4.3,2-4.3,4.4c0,2.4,1.6,4.5,4.3,4.5c1.4,0,4.2-1.1,4.2-4.4 C146.1,15.8,144.4,13.6,141.9,13.6z"></path> </g> <polygon class="st1" points="13.1,23.9 2,23.9 2,12.7 "></polygon> </g> </svg> 